<?xml version="1.0" encoding="utf-8"?>
<!-- Generator: Adobe Illustrator 24.3.0, SVG Export Plug-In . SVG Version: 6.00 Build 0)  -->
<svg version="1.1" id="Layer_1" xmlns="http://www.w3.org/2000/svg" xmlns:xlink="http://www.w3.org/1999/xlink" x="0px" y="0px"
	 viewBox="0 0 3952 1137.92" style="enable-background:new 0 0 3952 1137.92;" xml:space="preserve">
<style type="text/css">
	.st0{fill:#FFFFFF;}
</style>
<g>
	<g>
		<path class="st0" d="M868.66,326.45c-9.03-33.59-0.29-66.43,4.47-99.37c3.21-22.21,16.43-33.89,39.27-32.17
			c21.54,1.62,43.21,3.15,64.44,6.87c31.49,5.51,42.95,38.14,19.92,59.9c-12.64,11.94-6.24,17.9-0.08,27.49
			c104.23,162.26,120.76,332.1,29.9,503.63c-92.63,174.89-241.12,273.22-440.85,282.29c-101.25,4.6-195.89-25.5-281.91-81.82
			c8.42-8.46,18.68-14.49,22.43-23.3c12.18-28.64,25.86-26.61,51.84-13.25c311.85,160.35,649.22-100.58,635.17-408.62
			c-3.64-79.81-30.16-151.83-73.38-218.34c-5.74-8.83-10.93-15.42-21.94-6.31c-15.84,13.1-33.42-1.64-49.95,2.33L868.66,326.45z"/>
		<path class="st0" d="M281.44,824c5.96,29.38,1.41,58.5-3.37,87.36c-3.47,20.89-17.74,31.69-38.88,29.68
			c-23.16-2.2-46.44-5.07-69.11-10.11c-30.37-6.75-40.39-36.71-19.04-59.24c9.96-10.51,7.66-15.68,1.14-25.43
			c-176.26-263.62-61.92-577.3,175.11-713.28c165.26-94.81,331.66-92.81,498.26-2.03c15.78,8.6,22.31,15.37,4.53,27.88
			c-1.37,0.97-2.16,2.74-3.5,3.8c-11.35,9.04-9.39,32.39-25.14,32.34c-13.04-0.04-25.87-12.44-39.09-18.74
			C548.18,74.32,295.3,161.29,187.76,374.12c-73.94,146.34-66.75,289.23,19.33,428.53c7.45,12.06,12.33,20.23,29.06,8.55
			c17.09-11.93,32.43,1.36,45.6,13.25L281.44,824z"/>
		<path class="st0" d="M727.81,494.57c-1.06,19.42-5.76,42.3-20.6,61.33c-7.59,9.74-7.75,16.05-0.84,26.86
			c46.42,72.7,10.25,158.05-74.37,175.75c-12.28,2.57-19.14,5.48-22.15,19.1c-3.72,16.87-17,25.82-34.57,25.57
			c-17.62-0.25-31.15-9.73-33.6-26.65c-2.39-16.51-11.46-16.25-23.27-16.09c-19.01,0.27-38.04,0.27-57.04-0.14
			c-19.81-0.42-33.38-10-36.25-30.04c-2.64-18.45,5.44-32.75,23.94-37.62c13.44-3.54,14.28-11.61,14.22-22.88
			c-0.34-69.12-0.29-138.25-0.05-207.37c0.03-9.93-1.79-17.68-9.49-25.27c-10.49-10.33-13.47-23.47-6.68-38.05
			c6.72-14.43,18.3-19.96,33.17-20.54c7.77-0.3,15.56-0.33,23.33-0.19c18.65,0.35,37.24,3.93,41.99-23.9
			c2.46-14.4,17.8-19.92,33.15-19.23c15.98,0.72,27.45,10.03,30.1,24.08c3.13,16.64,12.72,18.79,26.29,21.51
			C689.8,391.79,727.29,436.78,727.81,494.57z M581.01,689.22c10.31,0,20.64,0.39,30.92-0.07c28.97-1.32,45.52-16.63,45.51-41.63
			c-0.01-24.93-17.11-41.53-44.83-42.72c-14.58-0.63-29.21-0.36-43.81-0.2c-39.16,0.41-35.82-5.09-35.97,35.7
			C532.65,689.35,532.77,689.35,581.01,689.22z M585.19,534.23c9.5,0,19.02,0.35,28.5-0.07c25.65-1.12,43.12-18.24,43.21-41.93
			c0.09-24.24-16.33-41.22-42.41-42.6c-16.37-0.86-33,1.26-49.18-0.71c-25.57-3.11-34.41,4.77-33.23,31.98
			C534.41,534.2,532.7,534.28,585.19,534.23z"/>
		<path class="st0" d="M281.76,824.44c10.57-9.11-1.51-13.22-4.91-17.67c-106.68-139.79-116.01-285.26-27.38-439.32
			c5.54-9.62,7.48-16.53,1.6-27.92c-12.33-23.89-0.72-44.8,25.19-50.61c1.68-0.38,3.43-0.44,5.13-0.75
			c73.43-13.7,88.38-1.5,89.04,72.67c0.24,26.64-13.3,41.06-39.95,38.06c-13.76-1.55-19.68,2.68-26.5,13.37
			c-68.03,106.68-53.47,259.3,35.08,361.85c90.92,105.29,229.4,137.83,360.25,83.41c15.73-6.54,23.75-6.88,30.43,10.24
			c5.33,13.65,15.86,24.5,30.46,35.75c-31.39,19.73-63.36,31.35-96.41,38.87c-139.88,31.8-259.01-8.24-360.65-106.57
			c-11.26-10.89-11.13-11.03-21.71-11.82C281.44,824,281.76,824.44,281.76,824.44z"/>
		<path class="st0" d="M867.98,325.78C976.89,456.01,991.09,612.64,907,761.54c-7.2,12.75-11.55,23.14-2.81,37.69
			c7.06,11.74,3.27,25.51-6.16,36.04c-11.26,12.58-76.12,22.22-91.42,14.35c-12.67-6.51-19.3-17.02-20.74-30.78
			c-1.43-13.74-3.08-27.54-3.08-41.32c-0.01-27.21,13.6-41.74,40-38.43c14.91,1.87,19.4-4.35,25.6-14.62
			c88.37-146.39,32.68-343.4-120.65-426.91C636.98,248.13,544,242,448.89,283.03c-13.66,5.89-19.38,4.52-24.26-9.49
			c-3.04-8.71-8.37-17.79-15.23-23.79c-17.83-15.58-9.19-21.49,7.18-28.76c147.58-65.6,312.3-35.98,426.02,77.27
			c9.05,9.02,17.38,18.76,26.05,28.18C868.66,326.45,867.98,325.78,867.98,325.78z"/>
	</g>
	<g>
		<g>
			<g>
				<path class="st0" d="M1277.31,258.26h96.47c59.61,0,105.06,16.31,105.06,71.05c0,25.75-15.33,53.18-49.02,61.98v1.76
					c40.98,7.55,62.45,29.17,62.45,67.51c0,58.36-47.82,84.5-110.29,84.5h-104.66V258.26z M1370.79,373.38
					c31.51,0,44.65-13.3,44.65-34.95c0-21.4-13.99-29.67-44.16-29.67h-29.18v64.62H1370.79z M1376.68,494.57
					c35.32,0,52.18-12.79,52.18-38.94c0-25.17-16.49-35.57-52.18-35.57h-34.58v74.51H1376.68z"/>
				<path class="st0" d="M1599.39,459.68V287.56h-68.71v-50.76h133.5v225.53c0,27,17.36,35.75,35.58,35.75
					c10.1,0,20.76-2.13,34.02-7.14l14.32,47.61c-22.66,7.41-38.02,11.81-65.15,11.81C1627.97,550.35,1599.39,515.05,1599.39,459.68z
					"/>
				<path class="st0" d="M1793.66,436.02c0-72.69,53.74-114.57,111.34-114.57s111.34,41.88,111.34,114.57
					c0,72.45-53.74,114.33-111.34,114.33S1793.66,508.47,1793.66,436.02z M1950.04,436.02c0-37.86-15.22-62.29-45.04-62.29
					c-29.82,0-45.04,24.43-45.04,62.29c0,37.74,15.22,62.05,45.04,62.05C1934.82,498.07,1950.04,473.76,1950.04,436.02z"/>
				<path class="st0" d="M2066.52,436.02c0-72.69,59.02-114.57,126.25-114.57c34.45,0,63.47,12.18,81.71,29.66l-29.79,40.16
					c-16.65-12.11-31.96-17.54-48.37-17.54c-37.54,0-63.49,24.43-63.49,62.29c0,37.74,25.51,62.05,61.34,62.05
					c22.91,0,41.74-9.98,57.44-20.81l26.13,40.91c-26.31,22.08-59.92,32.18-89.7,32.18
					C2119.23,550.35,2066.52,508.47,2066.52,436.02z"/>
				<path class="st0" d="M2334.28,236.79h64.79v177.72h1.76l80.26-87.78h70.71l-152.72,163.42v54.92h-64.79V236.79z M2425.15,446.13
					l37.25-40.28l96.39,139.22h-70.34L2425.15,446.13z"/>
				<path class="st0" d="M2596.87,236.79h64.79v75.22l-3.79,42.04h1.64c16.17-16.78,39.67-32.6,72.36-32.6
					c49.02,0,70.76,33.74,70.76,88.8v134.82h-64.79V418.59c0-29.06-8.37-41.95-32.02-41.95c-17.27,0-29.04,8-44.16,22.73v145.7
					h-64.79V236.79z"/>
				<path class="st0" d="M2856.16,484.53c0-48.92,40.45-73.84,143.61-80.1c-2.27-19.52-16.99-31.47-46.3-31.47
					c-21.06,0-41.99,8.12-66.56,20.45l-23.1-42.43c30.26-17.26,65.08-29.54,102.17-29.54c61.39,0,98.57,31.91,98.57,98.82v124.8
					h-52.91l-4.67-24.6h-1.64c-22.06,16.58-49.37,29.88-77.39,29.88C2883.77,550.35,2856.16,521.24,2856.16,484.53z M2999.77,479.33
					v-35.77c-64.23,3.23-81.48,17.15-81.48,35.79c0,14.04,11.84,20.87,30.14,20.87C2967.87,500.22,2984.33,491.32,2999.77,479.33z"
					/>
				<path class="st0" d="M3107.01,326.73h65.04l34.37,102.93c7.09,21.88,13.11,44.28,19.64,67.19h1.76
					c6.53-22.91,12.3-45.3,19.52-67.19l34.37-102.93h61.88l-80.01,218.34h-74.27L3107.01,326.73z"/>
				<path class="st0" d="M3381.54,435.78c0-71.44,55.11-114.33,113.59-114.33c67.33,0,102.78,45.45,102.78,104.79
					c0,11.85-1.83,23.59-2.71,28.99h-165.64v-43.41h121.85l-10.2,12.35c0-35.05-15.24-53.47-43.93-53.47
					c-31.99,0-52.98,21.67-52.98,65.08c0,45.29,24.66,65.2,67.11,65.2c19.81,0,36.88-5.38,56.25-15.16l21.46,39.01
					c-24.94,15.99-57.3,25.53-86.55,25.53C3434.49,550.35,3381.54,508.35,3381.54,435.78z"/>
				<path class="st0" d="M3653.1,326.73h52.79l4.67,29.1h1.76c18.95-18.56,42.96-34.38,75.46-34.38c49.34,0,71.08,33.74,71.08,88.8
					v134.82h-64.79V418.59c0-29.06-8.37-41.95-32.02-41.95c-17.27,0-29.04,8-44.16,22.73v145.7h-64.79V326.73z"/>
			</g>
		</g>
		<g>
			<g>
				<path class="st0" d="M1273.79,756.21h75.16v15.41h-56.87v33.83h48.1v15.41h-48.1v39.19h58.69v15.41h-76.98V756.21z"/>
				<path class="st0" d="M1406.72,813.91l-33.12-57.69h20.3l15.39,28.34c3.03,5.46,5.76,10.69,9.52,17.89h0.73
					c3.18-7.2,5.61-12.43,8.42-17.89l14.89-28.34h19.44l-33.12,58.56l35.42,60.7h-20.45l-16.55-30.01
					c-3.28-6.04-6.45-12.09-10.29-19.37h-0.73c-3.32,7.28-6.35,13.33-9.41,19.37l-16.42,30.01h-19.44L1406.72,813.91z"/>
				<path class="st0" d="M1483.89,816.01c0-38.66,23.04-61.98,54.35-61.98c14.56,0,26.12,6.99,33.46,14.7l-10.3,11.45
					c-6.06-6.22-13.51-10.17-23.15-10.17c-21.23,0-35.48,17.34-35.48,45.49c0,28.58,14.25,46.15,35.76,46.15
					c10.31,0,18.35-4.6,25.37-12.43l10.3,11.09c-9.39,11.06-21.6,17.33-37.48,17.33C1507.22,877.65,1483.89,855.25,1483.89,816.01z"
					/>
				<path class="st0" d="M1595.5,756.21h18.44v48.81h45.04v-48.81h18.44v119.25h-18.44v-54.39h-45.04v54.39h-18.44V756.21z"/>
				<path class="st0" d="M1735.07,756.21h21.29l39.39,119.25h-19.52l-19.22-64.95c-3.88-12.92-7.79-26.23-11.22-39.73h-0.73
					c-3.59,13.5-7.27,26.81-11.16,39.73l-19.51,64.95h-18.72L1735.07,756.21z M1717.8,826.71h55.32v14.59h-55.32V826.71z"/>
				<path class="st0" d="M1814.53,756.21h19.54l34.81,70.88l11.13,25.11h0.43c-0.72-12.01-2.44-26.3-2.44-39.24v-56.75h17.42v119.25
					h-19.54l-34.81-70.91l-11.13-25.07h-0.43c0.72,12.44,2.45,26,2.45,38.79v57.19h-17.42V756.21z"/>
				<path class="st0" d="M1918.81,816.01c0-38.88,22.58-61.98,53.5-61.98c15.88,0,26.46,7.43,33.4,14.7l-10.31,11.45
					c-5.51-5.77-12.17-10.17-23.1-10.17c-20.63,0-34.45,17.34-34.45,45.49c0,28.58,12.34,46.15,34.46,46.15
					c7.36,0,14.34-2.21,18.23-6.04v-28.38h-22.01v-14.98h38.76v51.42c-7.57,7.58-20.66,13.98-36.07,13.98
					C1941.12,877.65,1918.81,855.25,1918.81,816.01z"/>
				<path class="st0" d="M2038.6,756.21h75.16v15.41h-56.87v33.83h48.1v15.41h-48.1v39.19h58.69v15.41h-76.98V756.21z"/>
				<path class="st0" d="M2238.92,756.07h19.91l7.38,71.97c0.89,10.05,1.48,16.69,1.92,28.22h0.58c2.05-11.53,3.56-18.21,5.83-28.07
					l10.7-41.51h15.25l10.3,41.51c2.38,9.8,3.74,16.48,5.83,28.07h0.73c0.59-11.6,0.89-18.24,1.78-28.07l7.08-72.11h18.9
					l-16.77,119.4h-21.45l-10.46-45.15c-1.72-7.35-3.14-14.54-4.06-21.79h-0.55c-1.14,7.25-2.2,14.44-3.92,21.79l-10.4,45.15h-21.02
					L2238.92,756.07z"/>
				<path class="st0" d="M2362.94,860.06h29.17v-88.43h-29.17v-15.41h76.63v15.41h-29.17v88.43h29.17v15.41h-76.63V860.06z"/>
				<path class="st0" d="M2501.37,771.62h-38.5v-15.41h95.28v15.41h-38.5v103.84h-18.29V771.62z"/>
				<path class="st0" d="M2578.82,756.21h18.44v48.81h45.04v-48.81h18.44v119.25h-18.44v-54.39h-45.04v54.39h-18.44V756.21z"/>
				<path class="st0" d="M2794.99,816.01c0-38.66,23.04-61.98,54.35-61.98c14.56,0,26.12,6.99,33.46,14.7l-10.3,11.45
					c-6.05-6.22-13.51-10.17-23.15-10.17c-21.23,0-35.49,17.34-35.49,45.49c0,28.58,14.25,46.15,35.76,46.15
					c10.31,0,18.35-4.6,25.38-12.43l10.3,11.09c-9.39,11.06-21.6,17.33-37.48,17.33C2818.32,877.65,2794.99,855.25,2794.99,816.01z"
					/>
				<path class="st0" d="M2901.18,815.29c0-38.88,19.07-61.27,46.37-61.27c27.29,0,46.36,22.39,46.36,61.27
					c0,39.52-19.07,62.36-46.36,62.36C2920.26,877.65,2901.18,854.82,2901.18,815.29z M2975.04,815.29
					c0-28.65-10.93-45.27-27.5-45.27c-16.57,0-27.5,16.62-27.5,45.27c0,29.3,10.93,46.37,27.5,46.37
					C2964.11,861.66,2975.04,844.59,2975.04,815.29z"/>
				<path class="st0" d="M3016.36,756.21h19.54l34.81,70.88l11.13,25.11h0.43c-0.72-12.01-2.45-26.3-2.45-39.24v-56.75h17.42v119.25
					h-19.54l-34.81-70.91l-11.13-25.07h-0.43c0.72,12.44,2.44,26,2.44,38.79v57.19h-17.42V756.21z"/>
				<path class="st0" d="M3134.33,756.21h74.81v15.41h-56.53v36.95h47.94v15.41h-47.94v51.48h-18.29V756.21z"/>
				<path class="st0" d="M3237,860.06h29.17v-88.43H3237v-15.41h76.63v15.41h-29.17v88.43h29.17v15.41H3237V860.06z"/>
				<path class="st0" d="M3345.01,756.21h30.35c35.5,0,55.8,20.46,55.8,59.08c0,38.77-20.3,60.17-54.87,60.17h-31.28V756.21z
					 M3374.17,860.56c24.89,0,38.13-15.51,38.13-45.26c0-29.6-13.24-44.17-38.13-44.17h-10.87v89.43H3374.17z"/>
				<path class="st0" d="M3458.95,756.21h75.16v15.41h-56.87v33.83h48.1v15.41h-48.1v39.19h58.69v15.41h-76.98V756.21z"/>
				<path class="st0" d="M3562.65,756.21h19.54l34.81,70.88l11.13,25.11h0.43c-0.72-12.01-2.45-26.3-2.45-39.24v-56.75h17.42v119.25
					H3624l-34.81-70.91l-11.13-25.07h-0.43c0.72,12.44,2.44,26,2.44,38.79v57.19h-17.42V756.21z"/>
				<path class="st0" d="M3669.05,816.01c0-38.66,23.04-61.98,54.35-61.98c14.56,0,26.12,6.99,33.46,14.7l-10.3,11.45
					c-6.05-6.22-13.51-10.17-23.15-10.17c-21.23,0-35.49,17.34-35.49,45.49c0,28.58,14.25,46.15,35.76,46.15
					c10.31,0,18.35-4.6,25.38-12.43l10.3,11.09c-9.39,11.06-21.6,17.33-37.48,17.33C3692.38,877.65,3669.05,855.25,3669.05,816.01z"
					/>
				<path class="st0" d="M3786.72,756.21h75.16v15.41h-56.87v33.83h48.1v15.41h-48.1v39.19h58.69v15.41h-76.98V756.21z"/>
			</g>
		</g>
	</g>
</g>
</svg>
